<?xml version="1.0"?>
<svg xmlns="http://www.w3.org/2000/svg" xmlns:xlink="http://www.w3.org/1999/xlink" viewBox="0 0 512 512" width="512" height="512"><defs><linearGradient id="linear-gradient" x1="122.741" y1="423.947" x2="427.001" y2="119.687" gradientUnits="userSpaceOnUse"><stop offset="0" stop-color="#41dfd0"/><stop offset="1" stop-color="#ee83ef"/></linearGradient></defs><g id="gradient"><path d="M392,248H126.559l-3.82-19.1a26.071,26.071,0,0,0-25.5-20.9H68.79a27,27,0,1,0,0,16H97.244a10.026,10.026,0,0,1,9.805,8.039l42.695,213.472A23.062,23.062,0,0,0,172.3,464h4.508a40,40,0,0,0,78.39,0h65.61a40,40,0,1,0,0-16H255.2a40,40,0,0,0-78.39,0H172.3a7.019,7.019,0,0,1-6.864-5.628l-5.473-27.363,217.476-29A26.082,26.082,0,0,0,400,360.24V256A8,8,0,0,0,392,248ZM43,227a11,11,0,1,1,11-11A11.013,11.013,0,0,1,43,227ZM360,432a24,24,0,1,1-24,24A24.028,24.028,0,0,1,360,432Zm-144,0a24,24,0,1,1-24,24A24.028,24.028,0,0,1,216,432Zm-40-35.271-17.7,2.36L150.07,360H176ZM176,344H146.7l-6.737-32H176Zm0-48H136.6l-6.737-32H176Zm72,91.129L192,394.6V360h56ZM248,344H192V312h56Zm0-48H192V264h56Zm72,81.529L264,385V360h56ZM320,344H264V312h56Zm0-48H264V264h56Zm64,64.24a10.033,10.033,0,0,1-8.678,9.913L336,375.4V360h48ZM384,344H336V312h48Zm0-48H336V264h48ZM203,456a13,13,0,1,1,13,13A13,13,0,0,1,203,456Zm144,0a13,13,0,1,1,13,13A13,13,0,0,1,347,456ZM288,32H224a8,8,0,0,0-8,8V152H192a8,8,0,0,0-5.657,13.657l64,64a8,8,0,0,0,11.314,0l64-64A8,8,0,0,0,320,152H296V40A8,8,0,0,0,288,32Zm12.686,136L256,212.687,211.314,168H224a8,8,0,0,0,8-8V48h48V160a8,8,0,0,0,8,8ZM312,64V24a8,8,0,0,1,16,0V64a8,8,0,0,1-16,0Zm0,32a8,8,0,0,1,16,0v8a8,8,0,0,1-16,0Z" style="fill:url(#linear-gradient)"/></g></svg>
